<svg width="85" height="38" viewBox="0 0 85 38" fill="none" xmlns="http://www.w3.org/2000/svg">
<path d="M6.90039 10.0508H15.5736C21.5459 10.0508 25.8125 13.4541 25.8125 19.9607C25.8125 26.4672 21.5459 29.8759 15.5736 29.8759H6.90039V10.0508ZM15.5736 25.9152C18.9902 25.9152 21.5459 24.5002 21.5459 19.966C21.5459 15.4318 18.9848 14.0169 15.5736 14.0169H11.1671V25.9152H15.5736Z" fill="white"/>
<path d="M28.0303 19.9636C28.0303 13.4735 32.2747 9.5293 38.2287 9.5293C43.5503 9.5293 47.5214 12.5448 48.1163 17.7113H43.8075C43.3252 14.7224 41.0851 13.4788 38.2287 13.4788C34.8256 13.4788 32.2801 15.4536 32.2801 19.9689C32.2801 24.4842 34.5416 26.459 37.9446 26.459C40.4366 26.459 42.7357 25.4182 43.5235 23.0698H38.2287V19.6807H48.1163V29.8374H44.7132V25.9146C43.6092 29.1543 40.9993 30.3978 37.9446 30.3978C31.996 30.3978 28.0356 26.4483 28.0356 19.9636H28.0303Z" fill="white"/>
<path d="M50.9854 20.0234C50.9854 13.4961 55.2298 9.5293 61.1838 9.5293C66.5054 9.5293 70.4765 12.7017 71.0713 18.0427H66.7626C66.2803 14.8918 64.0402 13.5015 61.1838 13.5015C57.7807 13.5015 55.2351 15.4876 55.2351 20.0288C55.2351 24.57 57.7861 26.5561 61.1838 26.5561C64.0455 26.5561 66.2803 25.1658 66.7626 22.0149H71.0713C70.4765 27.3451 66.5107 30.5283 61.1838 30.5283C55.2351 30.5283 50.9854 26.5561 50.9854 20.0342V20.0234Z" fill="white"/>
<path d="M9.86881 1.31152H0.369141V3.40456H9.86881V1.31152Z" fill="white"/>
<path d="M2.46218 10.8112V1.31152H0.369141V10.8112H2.46218Z" fill="white"/>
<path d="M0.36914 28.2923L0.369141 37.792L2.46218 37.792L2.46218 28.2923L0.36914 28.2923Z" fill="white"/>
<path d="M9.86881 35.699L0.369141 35.699L0.369141 37.792L9.86881 37.792L9.86881 35.699Z" fill="white"/>
<path d="M68.7415 37.792L78.2412 37.792L78.2412 35.699L68.7415 35.699L68.7415 37.792Z" fill="white"/>
<path d="M76.1482 28.2923L76.1482 37.792L78.2412 37.792L78.2412 28.2923L76.1482 28.2923Z" fill="white"/>
<path d="M73.4189 3.07331C73.4189 4.69475 74.7321 6.00795 76.3536 6.00795C77.975 6.00795 79.2882 4.69475 79.2882 3.07331C79.2882 1.45188 77.975 0.138672 76.3536 0.138672C74.7321 0.138672 73.4189 1.45188 73.4189 3.07331Z" fill="#DE0913"/>
</svg>
