<svg width="12" height="209" viewBox="0 0 12 209" fill="none" xmlns="http://www.w3.org/2000/svg">
<line y1="-0.5" x2="12" y2="-0.5" transform="matrix(1 -8.74228e-08 -8.74228e-08 -1 0 0)" stroke="white" stroke-opacity="0.5"/>
<line y1="-0.5" x2="8" y2="-0.5" transform="matrix(1 -1.09278e-07 -7.28523e-08 -1 4 4)" stroke="white" stroke-opacity="0.5"/>
<line y1="-0.5" x2="8" y2="-0.5" transform="matrix(1 -1.09278e-07 -7.28523e-08 -1 4 8)" stroke="white" stroke-opacity="0.5"/>
<line y1="-0.5" x2="8" y2="-0.5" transform="matrix(1 -1.09278e-07 -7.28523e-08 -1 4 12)" stroke="white" stroke-opacity="0.5"/>
<line y1="-0.5" x2="12" y2="-0.5" transform="matrix(1 -8.74228e-08 -8.74228e-08 -1 0 16)" stroke="white" stroke-opacity="0.5"/>
<line y1="-0.5" x2="8" y2="-0.5" transform="matrix(1 -1.09278e-07 -7.28523e-08 -1 4 20)" stroke="white" stroke-opacity="0.5"/>
<line y1="-0.5" x2="8" y2="-0.5" transform="matrix(1 -1.09278e-07 -7.28523e-08 -1 4 24)" stroke="white" stroke-opacity="0.5"/>
<line y1="-0.5" x2="8" y2="-0.5" transform="matrix(1 -1.09278e-07 -7.28523e-08 -1 4 28)" stroke="white" stroke-opacity="0.5"/>
<line y1="-0.5" x2="12" y2="-0.5" transform="matrix(1 -8.74228e-08 -8.74228e-08 -1 0 32)" stroke="white" stroke-opacity="0.5"/>
<line y1="-0.5" x2="8" y2="-0.5" transform="matrix(1 -1.09278e-07 -7.28523e-08 -1 4 36)" stroke="white" stroke-opacity="0.5"/>
<line y1="-0.5" x2="8" y2="-0.5" transform="matrix(1 -1.09278e-07 -7.28523e-08 -1 4 40)" stroke="white" stroke-opacity="0.5"/>
<line y1="-0.5" x2="8" y2="-0.5" transform="matrix(1 -1.09278e-07 -7.28523e-08 -1 4 44)" stroke="white" stroke-opacity="0.5"/>
<line y1="-0.5" x2="12" y2="-0.5" transform="matrix(1 -8.74228e-08 -8.74228e-08 -1 0 48)" stroke="white" stroke-opacity="0.5"/>
<line y1="-0.5" x2="8" y2="-0.5" transform="matrix(1 -1.09278e-07 -7.28523e-08 -1 4 52)" stroke="white" stroke-opacity="0.5"/>
<line y1="-0.5" x2="8" y2="-0.5" transform="matrix(1 -1.09278e-07 -7.28523e-08 -1 4 56)" stroke="white" stroke-opacity="0.5"/>
<line y1="-0.5" x2="8" y2="-0.5" transform="matrix(1 -1.09278e-07 -7.28523e-08 -1 4 60)" stroke="white" stroke-opacity="0.5"/>
<line y1="-0.5" x2="12" y2="-0.5" transform="matrix(1 -8.74228e-08 -8.74228e-08 -1 0 64)" stroke="white" stroke-opacity="0.5"/>
<line y1="-0.5" x2="8" y2="-0.5" transform="matrix(1 -1.09278e-07 -7.28523e-08 -1 4 68)" stroke="white" stroke-opacity="0.5"/>
<line y1="-0.5" x2="8" y2="-0.5" transform="matrix(1 -1.09278e-07 -7.28523e-08 -1 4 72)" stroke="white" stroke-opacity="0.5"/>
<line y1="-0.5" x2="8" y2="-0.5" transform="matrix(1 -1.09278e-07 -7.28523e-08 -1 4 76)" stroke="white" stroke-opacity="0.5"/>
<line y1="-0.5" x2="12" y2="-0.5" transform="matrix(1 -8.74228e-08 -8.74228e-08 -1 0 80)" stroke="white" stroke-opacity="0.5"/>
<line y1="-0.5" x2="8" y2="-0.5" transform="matrix(1 -1.09278e-07 -7.28523e-08 -1 4 84)" stroke="white" stroke-opacity="0.5"/>
<line y1="-0.5" x2="8" y2="-0.5" transform="matrix(1 -1.09278e-07 -7.28523e-08 -1 4 88)" stroke="white" stroke-opacity="0.5"/>
<line y1="-0.5" x2="8" y2="-0.5" transform="matrix(1 -1.09278e-07 -7.28523e-08 -1 4 92)" stroke="white" stroke-opacity="0.5"/>
<line y1="-0.5" x2="12" y2="-0.5" transform="matrix(1 -8.74228e-08 -8.74228e-08 -1 0 96)" stroke="white" stroke-opacity="0.5"/>
<line y1="-0.5" x2="8" y2="-0.5" transform="matrix(1 -1.09278e-07 -7.28523e-08 -1 4 100)" stroke="white" stroke-opacity="0.5"/>
<line y1="-0.5" x2="8" y2="-0.5" transform="matrix(1 -1.09278e-07 -7.28523e-08 -1 4 104)" stroke="white" stroke-opacity="0.5"/>
<line y1="-0.5" x2="8" y2="-0.5" transform="matrix(1 -1.09278e-07 -7.28523e-08 -1 4 108)" stroke="white" stroke-opacity="0.5"/>
<line y1="-0.5" x2="12" y2="-0.5" transform="matrix(1 -8.74228e-08 -8.74228e-08 -1 0 112)" stroke="white" stroke-opacity="0.5"/>
<line y1="-0.5" x2="8" y2="-0.5" transform="matrix(1 -1.09278e-07 -7.28523e-08 -1 4 116)" stroke="white" stroke-opacity="0.5"/>
<line y1="-0.5" x2="8" y2="-0.5" transform="matrix(1 -1.09278e-07 -7.28523e-08 -1 4 120)" stroke="white" stroke-opacity="0.5"/>
<line y1="-0.5" x2="8" y2="-0.5" transform="matrix(1 -1.09278e-07 -7.28523e-08 -1 4 124)" stroke="white" stroke-opacity="0.5"/>
<line y1="-0.5" x2="12" y2="-0.5" transform="matrix(1 -8.74228e-08 -8.74228e-08 -1 0 128)" stroke="white" stroke-opacity="0.5"/>
<line y1="-0.5" x2="8" y2="-0.5" transform="matrix(1 -1.09278e-07 -7.28523e-08 -1 4 132)" stroke="white" stroke-opacity="0.5"/>
<line y1="-0.5" x2="8" y2="-0.5" transform="matrix(1 -1.09278e-07 -7.28523e-08 -1 4 136)" stroke="white" stroke-opacity="0.5"/>
<line y1="-0.5" x2="8" y2="-0.5" transform="matrix(1 -1.09278e-07 -7.28523e-08 -1 4 140)" stroke="white" stroke-opacity="0.5"/>
<line y1="-0.5" x2="12" y2="-0.5" transform="matrix(1 -8.74228e-08 -8.74228e-08 -1 0 144)" stroke="white" stroke-opacity="0.5"/>
<line y1="-0.5" x2="8" y2="-0.5" transform="matrix(1 -1.09278e-07 -7.28523e-08 -1 4 148)" stroke="white" stroke-opacity="0.5"/>
<line y1="-0.5" x2="8" y2="-0.5" transform="matrix(1 -1.09278e-07 -7.28523e-08 -1 4 152)" stroke="white" stroke-opacity="0.5"/>
<line y1="-0.5" x2="8" y2="-0.5" transform="matrix(1 -1.09278e-07 -7.28523e-08 -1 4 156)" stroke="white" stroke-opacity="0.5"/>
<line y1="-0.5" x2="12" y2="-0.5" transform="matrix(1 -8.74228e-08 -8.74228e-08 -1 0 160)" stroke="white" stroke-opacity="0.5"/>
<line y1="-0.5" x2="8" y2="-0.5" transform="matrix(1 -1.09278e-07 -7.28523e-08 -1 4 164)" stroke="white" stroke-opacity="0.5"/>
<line y1="-0.5" x2="8" y2="-0.5" transform="matrix(1 -1.09278e-07 -7.28523e-08 -1 4 168)" stroke="white" stroke-opacity="0.5"/>
<line y1="-0.5" x2="8" y2="-0.5" transform="matrix(1 -1.09278e-07 -7.28523e-08 -1 4 172)" stroke="white" stroke-opacity="0.5"/>
<line y1="-0.5" x2="12" y2="-0.5" transform="matrix(1 -8.74228e-08 -8.74228e-08 -1 0 176)" stroke="white" stroke-opacity="0.5"/>
<line y1="-0.5" x2="8" y2="-0.5" transform="matrix(1 -1.09278e-07 -7.28523e-08 -1 4 180)" stroke="white" stroke-opacity="0.5"/>
<line y1="-0.5" x2="8" y2="-0.5" transform="matrix(1 -1.09278e-07 -7.28523e-08 -1 4 184)" stroke="white" stroke-opacity="0.5"/>
<line y1="-0.5" x2="8" y2="-0.5" transform="matrix(1 -1.09278e-07 -7.28523e-08 -1 4 188)" stroke="white" stroke-opacity="0.5"/>
<line y1="-0.5" x2="12" y2="-0.5" transform="matrix(1 -8.74228e-08 -8.74228e-08 -1 0 192)" stroke="white" stroke-opacity="0.5"/>
<line y1="-0.5" x2="8" y2="-0.5" transform="matrix(1 -1.09278e-07 -7.28523e-08 -1 4 196)" stroke="white" stroke-opacity="0.5"/>
<line y1="-0.5" x2="8" y2="-0.5" transform="matrix(1 -1.09278e-07 -7.28523e-08 -1 4 200)" stroke="white" stroke-opacity="0.5"/>
<line y1="-0.5" x2="8" y2="-0.5" transform="matrix(1 -1.09278e-07 -7.28523e-08 -1 4 204)" stroke="white" stroke-opacity="0.5"/>
<line y1="-0.5" x2="12" y2="-0.5" transform="matrix(1 -8.74228e-08 -8.74228e-08 -1 0 208)" stroke="white" stroke-opacity="0.5"/>
</svg>
