<svg width="12" height="209" viewBox="0 0 12 209" fill="none" xmlns="http://www.w3.org/2000/svg">
<line x1="12" y1="0.5" x2="-4.37114e-08" y2="0.499999" stroke="white" stroke-opacity="0.5"/>
<line x1="8" y1="4.5" x2="-3.64262e-08" y2="4.5" stroke="white" stroke-opacity="0.5"/>
<line x1="8" y1="8.5" x2="-3.64262e-08" y2="8.5" stroke="white" stroke-opacity="0.5"/>
<line x1="8" y1="12.5" x2="-3.64262e-08" y2="12.5" stroke="white" stroke-opacity="0.5"/>
<line x1="12" y1="16.5" x2="-4.37114e-08" y2="16.5" stroke="white" stroke-opacity="0.5"/>
<line x1="8" y1="20.5" x2="-3.64262e-08" y2="20.5" stroke="white" stroke-opacity="0.5"/>
<line x1="8" y1="24.5" x2="-3.64262e-08" y2="24.5" stroke="white" stroke-opacity="0.5"/>
<line x1="8" y1="28.5" x2="-3.64262e-08" y2="28.5" stroke="white" stroke-opacity="0.5"/>
<line x1="12" y1="32.5" x2="-4.37114e-08" y2="32.5" stroke="white" stroke-opacity="0.5"/>
<line x1="8" y1="36.5" x2="-3.64262e-08" y2="36.5" stroke="white" stroke-opacity="0.5"/>
<line x1="8" y1="40.5" x2="-3.64262e-08" y2="40.5" stroke="white" stroke-opacity="0.5"/>
<line x1="8" y1="44.5" x2="-3.64262e-08" y2="44.5" stroke="white" stroke-opacity="0.5"/>
<line x1="12" y1="48.5" x2="-4.37114e-08" y2="48.5" stroke="white" stroke-opacity="0.5"/>
<line x1="8" y1="52.5" x2="-3.64262e-08" y2="52.5" stroke="white" stroke-opacity="0.5"/>
<line x1="8" y1="56.5" x2="-3.64262e-08" y2="56.5" stroke="white" stroke-opacity="0.5"/>
<line x1="8" y1="60.5" x2="-3.64262e-08" y2="60.5" stroke="white" stroke-opacity="0.5"/>
<line x1="12" y1="64.5" x2="-4.37114e-08" y2="64.5" stroke="white" stroke-opacity="0.5"/>
<line x1="8" y1="68.5" x2="-3.64262e-08" y2="68.5" stroke="white" stroke-opacity="0.5"/>
<line x1="8" y1="72.5" x2="-3.64262e-08" y2="72.5" stroke="white" stroke-opacity="0.5"/>
<line x1="8" y1="76.5" x2="-3.64262e-08" y2="76.5" stroke="white" stroke-opacity="0.5"/>
<line x1="12" y1="80.5" x2="-4.37114e-08" y2="80.5" stroke="white" stroke-opacity="0.5"/>
<line x1="8" y1="84.5" x2="-3.64262e-08" y2="84.5" stroke="white" stroke-opacity="0.5"/>
<line x1="8" y1="88.5" x2="-3.64262e-08" y2="88.5" stroke="white" stroke-opacity="0.5"/>
<line x1="8" y1="92.5" x2="-3.64262e-08" y2="92.5" stroke="white" stroke-opacity="0.5"/>
<line x1="12" y1="96.5" x2="-4.37114e-08" y2="96.5" stroke="white" stroke-opacity="0.5"/>
<line x1="8" y1="100.5" x2="-3.64262e-08" y2="100.5" stroke="white" stroke-opacity="0.5"/>
<line x1="8" y1="104.5" x2="-3.64262e-08" y2="104.5" stroke="white" stroke-opacity="0.5"/>
<line x1="8" y1="108.5" x2="-3.64262e-08" y2="108.5" stroke="white" stroke-opacity="0.5"/>
<line x1="12" y1="112.5" x2="-4.37114e-08" y2="112.5" stroke="white" stroke-opacity="0.5"/>
<line x1="8" y1="116.5" x2="-3.64262e-08" y2="116.5" stroke="white" stroke-opacity="0.5"/>
<line x1="8" y1="120.5" x2="-3.64262e-08" y2="120.5" stroke="white" stroke-opacity="0.5"/>
<line x1="8" y1="124.5" x2="-3.64262e-08" y2="124.5" stroke="white" stroke-opacity="0.5"/>
<line x1="12" y1="128.5" x2="-4.37114e-08" y2="128.5" stroke="white" stroke-opacity="0.5"/>
<line x1="8" y1="132.5" x2="-3.64262e-08" y2="132.5" stroke="white" stroke-opacity="0.5"/>
<line x1="8" y1="136.5" x2="-3.64262e-08" y2="136.5" stroke="white" stroke-opacity="0.5"/>
<line x1="8" y1="140.5" x2="-3.64262e-08" y2="140.5" stroke="white" stroke-opacity="0.5"/>
<line x1="12" y1="144.5" x2="-4.37114e-08" y2="144.5" stroke="white" stroke-opacity="0.5"/>
<line x1="8" y1="148.5" x2="-3.64262e-08" y2="148.5" stroke="white" stroke-opacity="0.5"/>
<line x1="8" y1="152.5" x2="-3.64262e-08" y2="152.5" stroke="white" stroke-opacity="0.5"/>
<line x1="8" y1="156.5" x2="-3.64262e-08" y2="156.5" stroke="white" stroke-opacity="0.5"/>
<line x1="12" y1="160.5" x2="-4.37114e-08" y2="160.5" stroke="white" stroke-opacity="0.5"/>
<line x1="8" y1="164.5" x2="-3.64262e-08" y2="164.5" stroke="white" stroke-opacity="0.5"/>
<line x1="8" y1="168.5" x2="-3.64262e-08" y2="168.5" stroke="white" stroke-opacity="0.5"/>
<line x1="8" y1="172.5" x2="-3.64262e-08" y2="172.5" stroke="white" stroke-opacity="0.5"/>
<line x1="12" y1="176.5" x2="-4.37114e-08" y2="176.5" stroke="white" stroke-opacity="0.5"/>
<line x1="8" y1="180.5" x2="-3.64262e-08" y2="180.5" stroke="white" stroke-opacity="0.5"/>
<line x1="8" y1="184.5" x2="-3.64262e-08" y2="184.5" stroke="white" stroke-opacity="0.5"/>
<line x1="8" y1="188.5" x2="-3.64262e-08" y2="188.5" stroke="white" stroke-opacity="0.5"/>
<line x1="12" y1="192.5" x2="-4.37114e-08" y2="192.5" stroke="white" stroke-opacity="0.5"/>
<line x1="8" y1="196.5" x2="-3.64262e-08" y2="196.5" stroke="white" stroke-opacity="0.5"/>
<line x1="8" y1="200.5" x2="-3.64262e-08" y2="200.5" stroke="white" stroke-opacity="0.5"/>
<line x1="8" y1="204.5" x2="-3.64262e-08" y2="204.5" stroke="white" stroke-opacity="0.5"/>
<line x1="12" y1="208.5" x2="-4.37114e-08" y2="208.5" stroke="white" stroke-opacity="0.5"/>
</svg>
