<svg width="20" height="20" viewBox="0 0 20 20" fill="none" xmlns="http://www.w3.org/2000/svg">
<path fill-rule="evenodd" clip-rule="evenodd" d="M2.5 10C2.5 14.1421 5.85786 17.5 10 17.5C14.1421 17.5 17.5 14.1421 17.5 10C17.5 5.85786 14.1421 2.5 10 2.5C5.85786 2.5 2.5 5.85786 2.5 10ZM4 10C4 6.68629 6.68629 4 10 4C13.3137 4 16 6.68629 16 10C16 13.3137 13.3137 16 10 16C6.68629 16 4 13.3137 4 10ZM9.99991 5.3125C9.48832 5.3125 9.07943 5.73807 9.09988 6.24925L9.26868 10.4693C9.28438 10.8618 9.60712 11.1719 9.99991 11.1719C10.3927 11.1719 10.7154 10.8618 10.7311 10.4693L10.8999 6.24925C10.9204 5.73807 10.5115 5.3125 9.99991 5.3125ZM8.92188 13.3984C8.92188 12.8159 9.39407 12.3438 9.97656 12.3438C10.5591 12.3438 11.0312 12.8159 11.0312 13.3984C11.0312 13.9809 10.5591 14.4531 9.97656 14.4531C9.39407 14.4531 8.92188 13.9809 8.92188 13.3984Z" fill="#FF5065"/>
</svg>
